<?xml version="1.0" encoding="UTF-8"?>
<!DOCTYPE svg PUBLIC "-//W3C//DTD SVG 1.1//EN" "http://www.w3.org/Graphics/SVG/1.1/DTD/svg11.dtd">
<!-- Creator: CorelDRAW X7 -->
<svg xmlns="http://www.w3.org/2000/svg" xml:space="preserve" width="27.94cm" height="21.59cm" version="1.1" style="shape-rendering:geometricPrecision; text-rendering:geometricPrecision; image-rendering:optimizeQuality; fill-rule:evenodd; clip-rule:evenodd"
viewBox="0 0 27940 21590"
 xmlns:xlink="http://www.w3.org/1999/xlink">
 <defs>
  <style type="text/css">
   <![CDATA[
    .fil0 {fill:#042E33}
    .fil1 {fill:#E73031}
   ]]>
  </style>
 </defs>
 <g id="Capa_x0020_1">
  <metadata id="CorelCorpID_0Corel-Layer"/>
  <g id="_251128024">
   <path class="fil0" d="M8724 11345c709,1143 918,341 2464,-614 279,-172 712,-532 863,-596l116 558c31,192 62,394 90,576 59,376 114,765 176,1133 109,657 -221,1543 -380,2216 -168,711 -341,1420 -514,2131l-503 2145c525,228 756,280 1374,214 324,-920 950,-3219 1222,-3907 5,-12 21,-49 27,-61 29,-57 29,-54 56,-87l531 4057c218,10 477,30 667,-24 156,-44 425,-128 507,-244 106,-136 137,-7796 191,-8736l827 863c102,119 189,172 294,284 367,392 721,818 1096,1205 570,-84 708,-221 1028,-520 -852,-1084 -1713,-2197 -2572,-3255 -187,-223 -328,-413 -521,-636 -133,-154 -91,-217 -291,-289l-1358 -406c-152,-10 -777,126 -976,161 -1021,179 -739,-50 -1509,806 -187,209 -406,392 -602,596 -394,411 -748,807 -1145,1213 -195,200 -1102,1099 -1158,1217z"/>
   <path class="fil1" d="M10505 4491c242,63 1796,858 2154,1029l-269 1231 320 122 953 -863c549,187 1245,620 1808,854l-628 -2019c183,-110 589,-479 731,-644l1418 -1353c206,-182 557,-477 700,-683l-109 -230 -3308 1172c-53,-260 -153,-523 -237,-781 -146,-448 -59,-468 -499,-616 -120,205 -242,987 -303,1264 -168,766 -1,486 -1708,1109l-1023 408z"/>
  </g>
 </g>
</svg>
